<svg width="25" height="25" viewBox="0 0 25 25" fill="none" xmlns="http://www.w3.org/2000/svg">
<path d="M22.5 0H2.5C1.12165 0 0 1.12165 0 2.5V22.5C0 23.8783 1.12165 25 2.5 25H22.5C23.8783 25 25 23.8783 25 22.5V2.5C25 1.12165 23.8783 0 22.5 0ZM21.0379 8.30357C20.9598 10.0614 19.7321 12.4721 17.3549 15.5246C14.8996 18.7165 12.8181 20.3125 11.1217 20.3125C10.067 20.3125 9.17969 19.3415 8.44866 17.394C7.02567 12.1875 6.41741 9.13504 5.24554 9.13504C5.11161 9.13504 4.63728 9.41964 3.82812 9.98326L2.97991 8.88951C5.06138 7.05915 7.04799 5.0279 8.29241 4.91629C9.69866 4.78237 10.5636 5.74219 10.8873 7.80134C12.0424 15.1228 12.5558 16.2277 14.6596 12.9129C15.4129 11.7187 15.8203 10.8092 15.8761 10.1842C16.0714 8.33147 14.4308 8.45982 13.3203 8.93415C14.2076 6.02679 15.904 4.61496 18.4096 4.69308C20.2679 4.7433 21.144 5.94866 21.0379 8.30357Z" fill="black"/>
</svg>
